<?xml version="1.0" encoding="UTF-8"?>
<svg version="1.1" xmlns="http://www.w3.org/2000/svg" width="4028" height="2425">
<path d="M0 0 C3.71229983 1.48491993 6.90600693 2.96807308 10.359375 4.90625 C11.38345459 5.47980225 12.40753418 6.05335449 13.46264648 6.64428711 C14.54747314 7.25667236 15.6322998 7.86905762 16.75 8.5 C17.87672119 9.13365479 19.00344238 9.76730957 20.16430664 10.42016602 C26.95517743 14.25000564 33.70984746 18.13335601 40.4152832 22.1105957 C46.72724525 25.85304663 53.07941601 29.52403479 59.4375 33.1875 C60.54472412 33.82550537 61.65194824 34.46351074 62.79272461 35.12084961 C65.06337068 36.42889477 67.33412358 37.73675448 69.60498047 39.04443359 C75.0716998 42.19332054 80.53574887 45.34683264 86 48.5 C88.16665311 49.7500235 90.33331979 51.00002347 92.5 52.25 C125 71 125 71 157.5 89.75 C158.57266113 90.36883057 159.64532227 90.98766113 160.75048828 91.62524414 C162.91557071 92.87435518 165.08060982 94.12354129 167.24560547 95.37280273 C172.68615706 98.51202309 178.12747216 101.64990563 183.5703125 104.78515625 C194.02206199 110.80747329 204.46299548 116.84669337 214.875 122.9375 C223.55262241 128.01275123 232.26605568 133.02258767 241 138 C250.72115617 143.5400173 260.40894658 149.13374809 270.06689453 154.78344727 C280.59084625 160.93766742 291.15380137 167.02369996 301.71777344 173.10888672 C307.14659942 176.23680148 312.57319281 179.36858448 318 182.5 C320.16665583 183.75001879 322.3333225 185.00001878 324.5 186.25 C389.5 223.75 454.5 261.25 519.5 298.75 C520.57266113 299.36883057 521.64532227 299.98766113 522.75048828 300.62524414 C524.91557071 301.87435518 527.08060982 303.12354129 529.24560547 304.37280273 C534.68615706 307.51202309 540.12747216 310.64990563 545.5703125 313.78515625 C556.02206199 319.80747329 566.46299548 325.84669337 576.875 331.9375 C585.55262241 337.01275123 594.26605568 342.02258767 603 347 C612.72115617 352.5400173 622.40894658 358.13374809 632.06689453 363.78344727 C642.59084625 369.93766742 653.15380137 376.02369996 663.71777344 382.10888672 C669.14659945 385.2368015 674.57317249 388.36861966 680 391.5 C682.16015357 392.74609839 684.32030983 393.99219214 686.48046875 395.23828125 C690.87959075 397.77615993 695.27794321 400.31536583 699.67578125 402.85546875 C700.78759766 403.49742187 701.89941406 404.139375 703.04492188 404.80078125 C705.10764131 405.99180754 707.17016747 407.18316869 709.23242188 408.375 C719.46885408 414.28455277 729.73715239 420.13551565 740 426 C740 333.27 740 240.54 740 145 C823.23942321 144.87900595 823.23942321 144.87900595 858.18164062 144.85351562 C866.17749042 144.84764337 874.17334004 144.84158231 882.16918945 144.83520508 C883.17112683 144.83441383 884.17306421 144.83362259 885.20536333 144.83280736 C901.31105293 144.81981399 917.41670988 144.79619315 933.52238023 144.76854161 C950.09190937 144.7403342 966.66142161 144.72379161 983.23097378 144.71773452 C993.42799615 144.7136496 1003.62492625 144.70082205 1013.82192016 144.6762506 C1020.84584806 144.66020328 1027.86972935 144.65564176 1034.89367419 144.65949587 C1038.92608091 144.66138844 1042.95832827 144.65881331 1046.99070549 144.64238358 C1074.09455876 144.53750944 1101.09074149 145.87397469 1127.8125 150.75 C1128.52460632 150.87694244 1129.23671265 151.00388489 1129.97039795 151.13467407 C1170.19592566 158.32193939 1209.79932502 170.90772282 1246.03222656 189.97119141 C1248.1865748 191.09754667 1250.35420242 192.1955749 1252.5234375 193.29296875 C1269.23259103 201.81920314 1284.96374569 211.79296638 1300 223 C1300.80679199 223.59844727 1300.80679199 223.59844727 1301.62988281 224.20898438 C1325.09825881 241.69412114 1349.09160301 262.32168078 1367.0234375 285.46875 C1368.87626716 287.84154372 1370.82409125 290.10205599 1372.81201172 292.36181641 C1391.46427995 313.72882727 1405.32806715 338.77807 1418 364 C1418.37608398 364.74282227 1418.75216797 365.48564453 1419.13964844 366.25097656 C1440.54718227 408.84493355 1452.34499012 456.60438141 1456 504 C1456.05784668 504.72687012 1456.11569336 505.45374023 1456.17529297 506.20263672 C1460.20945447 559.36498452 1454.14805343 613.21250275 1438 664 C1437.7417041 664.82274414 1437.4834082 665.64548828 1437.21728516 666.49316406 C1423.30185784 710.23247126 1400.39449312 750.42739369 1372.64453125 786.77734375 C1370.98441915 788.88742202 1370.98441915 788.88742202 1370 791 C1370.71953857 791.27295898 1371.43907715 791.54591797 1372.18041992 791.82714844 C1374.9533802 792.98060771 1377.4947937 794.29738687 1380.11328125 795.765625 C1381.59526001 796.59501587 1381.59526001 796.59501587 1383.10717773 797.44116211 C1384.69381226 798.33653687 1384.69381226 798.33653687 1386.3125 799.25 C1387.97551147 800.18501343 1387.97551147 800.18501343 1389.67211914 801.13891602 C1399.13940877 806.47873305 1408.53299965 811.94123025 1417.91015625 817.4375 C1424.21570419 821.1321331 1430.54294436 824.78852681 1436.875 828.4375 C1437.95515381 829.06003662 1439.03530762 829.68257324 1440.14819336 830.32397461 C1442.33796334 831.58576826 1444.52782355 832.84740534 1446.71777344 834.10888672 C1452.14659942 837.23680148 1457.57319281 840.36858448 1463 843.5 C1465.16665583 844.75001879 1467.3333225 846.00001878 1469.5 847.25 C1489 858.5 1489 858.5 1508.5 869.75 C1509.57266113 870.36883057 1510.64532227 870.98766113 1511.75048828 871.62524414 C1513.91557071 872.87435518 1516.08060982 874.12354129 1518.24560547 875.37280273 C1523.68615706 878.51202309 1529.12747216 881.64990563 1534.5703125 884.78515625 C1545.02206199 890.80747329 1555.46299548 896.84669337 1565.875 902.9375 C1574.55262241 908.01275123 1583.26605568 913.02258767 1592 918 C1601.72115617 923.5400173 1611.40894658 929.13374809 1621.06689453 934.78344727 C1631.59084625 940.93766742 1642.15380137 947.02369996 1652.71777344 953.10888672 C1658.14659942 956.23680148 1663.57319281 959.36858448 1669 962.5 C1671.16665583 963.75001879 1673.3333225 965.00001878 1675.5 966.25 C1773 1022.5 1773 1022.5 1870.5 1078.75 C1871.57266113 1079.36883057 1872.64532227 1079.98766113 1873.75048828 1080.62524414 C1875.91557071 1081.87435518 1878.08060982 1083.12354129 1880.24560547 1084.37280273 C1885.68615706 1087.51202309 1891.12747216 1090.64990563 1896.5703125 1093.78515625 C1907.02206199 1099.80747329 1917.46299548 1105.84669337 1927.875 1111.9375 C1936.55262241 1117.01275123 1945.26605568 1122.02258767 1954 1127 C1963.72115617 1132.5400173 1973.40894658 1138.13374809 1983.06689453 1143.78344727 C1993.59084625 1149.93766742 2004.15380137 1156.02369996 2014.71777344 1162.10888672 C2020.14659942 1165.23680148 2025.57319281 1168.36858448 2031 1171.5 C2033.16665583 1172.75001879 2035.3333225 1174.00001878 2037.5 1175.25 C2041.83333333 1177.75 2046.16666667 1180.25 2050.5 1182.75 C2051.57427246 1183.36963623 2052.64854492 1183.98927246 2053.75537109 1184.62768555 C2055.90461202 1185.86790591 2058.05338156 1187.10894354 2060.20166016 1188.35083008 C2065.27218969 1191.28070058 2070.34709468 1194.20204561 2075.43914795 1197.09432983 C2077.84149946 1198.45953665 2080.24115891 1199.82943671 2082.640625 1201.19970703 C2084.33333218 1202.16376858 2086.02990354 1203.12103533 2087.7265625 1204.078125 C2088.75265625 1204.66464844 2089.77875 1205.25117187 2090.8359375 1205.85546875 C2091.73876465 1206.36746826 2092.6415918 1206.87946777 2093.57177734 1207.40698242 C2096.06021571 1209.03950407 2097.97793069 1210.8257604 2100 1213 C2088.36872089 1220.36961612 2076.39799619 1227.15720198 2064.45947266 1234.01220703 C2058.96860763 1237.1672263 2053.48452655 1240.33397963 2048 1243.5 C2045.83336859 1244.75006112 2043.66670186 1246.000061 2041.5 1247.25 C2040.4275 1247.86875 2039.355 1248.4875 2038.25 1249.125 C1950.50000003 1299.74999998 1950.50000003 1299.74999998 1947.24951172 1301.62524414 C1945.08442929 1302.87435518 1942.91939018 1304.12354129 1940.75439453 1305.37280273 C1935.31384294 1308.51202309 1929.87252784 1311.64990563 1924.4296875 1314.78515625 C1913.97793801 1320.80747329 1903.53700452 1326.84669337 1893.125 1332.9375 C1883.85500223 1338.35921178 1874.54168248 1343.70204915 1865.21154785 1349.01922607 C1856.0871716 1354.22045129 1846.99867226 1359.48027878 1837.93310547 1364.78344727 C1827.40915375 1370.93766742 1816.84619863 1377.02369996 1806.28222656 1383.10888672 C1800.85340058 1386.23680148 1795.42680719 1389.36858448 1790 1392.5 C1787.83334417 1393.75001879 1785.6666775 1395.00001878 1783.5 1396.25 C1782.4275 1396.86875 1781.355 1397.4875 1780.25 1398.125 C1588.49999998 1508.75000001 1588.49999998 1508.75000001 1585.24951172 1510.62524414 C1583.08442929 1511.87435518 1580.91939018 1513.12354129 1578.75439453 1514.37280273 C1573.31384294 1517.51202309 1567.87252784 1520.64990563 1562.4296875 1523.78515625 C1551.97793801 1529.80747329 1541.53700452 1535.84669337 1531.125 1541.9375 C1521.85500223 1547.35921178 1512.54168248 1552.70204915 1503.21154785 1558.01922607 C1494.0871716 1563.22045129 1484.99867226 1568.48027878 1475.93310547 1573.78344727 C1465.40915375 1579.93766742 1454.84619863 1586.02369996 1444.28222656 1592.10888672 C1438.85340058 1595.23680148 1433.42680719 1598.36858448 1428 1601.5 C1425.83334417 1602.75001879 1423.6666775 1604.00001878 1421.5 1605.25 C1420.4275 1605.86875 1419.355 1606.4875 1418.25 1607.125 C1226.50000001 1717.74999999 1226.50000001 1717.74999999 1223.24951172 1719.62524414 C1221.08442929 1720.87435518 1218.91939018 1722.12354129 1216.75439453 1723.37280273 C1211.31384294 1726.51202309 1205.87252784 1729.64990563 1200.4296875 1732.78515625 C1189.97793801 1738.80747329 1179.53700452 1744.84669337 1169.125 1750.9375 C1159.85733917 1756.35784498 1150.54640471 1761.69940385 1141.21859741 1767.01519775 C1130.97995845 1772.85152625 1120.78844795 1778.76574616 1110.6171875 1784.71875 C1106.85828958 1786.91806358 1103.0928172 1789.10535821 1099.3203125 1791.28125 C1098.43158447 1791.79389404 1097.54285645 1792.30653809 1096.62719727 1792.8347168 C1094.95917439 1793.7958346 1093.29042974 1794.75570122 1091.62084961 1795.71411133 C1088.10641237 1797.57675632 1088.10641237 1797.57675632 1085 1800 C1085.56170898 1800.18997559 1086.12341797 1800.37995117 1086.70214844 1800.57568359 C1116.47646303 1810.75209741 1143.09130682 1825.25975639 1166 1847 C1166.4729248 1847.44569336 1166.94584961 1847.89138672 1167.43310547 1848.35058594 C1175.13686095 1855.65574164 1181.7484883 1863.42491759 1188 1872 C1190.84132781 1869.2123835 1193.59542334 1866.37523043 1196.27734375 1863.43359375 C1232.6288349 1823.63356279 1281.57707497 1799.62091965 1335 1793 C1335.69504639 1792.9057373 1336.39009277 1792.81147461 1337.10620117 1792.71435547 C1395.54196282 1785.69628892 1457.34646457 1800.6199119 1504.140625 1836.6640625 C1508.77312257 1840.44853456 1513.17933053 1844.43518004 1517.5 1848.56738281 C1518.49481208 1849.51750607 1519.4947883 1850.4622534 1520.5 1851.40136719 C1558.72709902 1887.16461022 1575.54712572 1938.84586874 1578 1990 C1578.12620605 1995.09402114 1578.13168212 2000.18577439 1578.12025452 2005.2809906 C1578.12069186 2006.75824075 1578.12156976 2008.23549082 1578.12284368 2009.71274048 C1578.1250566 2013.7264191 1578.12111183 2017.74007052 1578.11606562 2021.75374568 C1578.11171475 2026.09912586 1578.11321081 2030.44450472 1578.1139679 2034.78988647 C1578.11449021 2042.30342912 1578.11137407 2049.81696302 1578.10573006 2057.33050346 C1578.09757528 2068.19359089 1578.09499577 2079.05667413 1578.09374207 2089.91976429 C1578.09155778 2107.54783027 1578.08491463 2125.17589161 1578.07543945 2142.80395508 C1578.06624918 2159.91984026 1578.05917626 2177.03572417 1578.05493164 2194.15161133 C1578.05466892 2195.20805391 1578.05440619 2196.26449648 1578.05413551 2197.35295247 C1578.0528304 2202.65323824 1578.05156671 2207.95352402 1578.05032361 2213.25380981 C1578.03997041 2257.16921067 1578.02154259 2301.08460292 1578 2345 C1529.16 2345 1480.32 2345 1430 2345 C1429.97421875 2321.19359375 1429.9484375 2297.3871875 1429.921875 2272.859375 C1429.89670774 2257.77473192 1429.87056258 2242.69010004 1429.83984375 2227.60546875 C1429.82375322 2219.67887428 1429.80790997 2211.75227938 1429.79248047 2203.82568359 C1429.79053653 2202.83231322 1429.78859259 2201.83894284 1429.78658974 2200.81547034 C1429.75563028 2184.81093523 1429.73861164 2168.80641445 1429.72680578 2152.80185506 C1429.71436301 2136.3577774 1429.68679138 2119.91377444 1429.64538693 2103.46974397 C1429.62034074 2093.33564761 1429.60687621 2083.20167527 1429.60857043 2073.06754753 C1429.60860035 2066.10346916 1429.59383936 2059.13951642 1429.56783572 2052.17548707 C1429.55329257 2048.16695328 1429.54489722 2044.15867707 1429.55419731 2040.15012169 C1429.61808038 2008.98157013 1426.86554951 1980.50881608 1404.07421875 1956.984375 C1383.4332249 1936.5102175 1356.85961995 1926.84300703 1328 1926.625 C1301.42040274 1926.84839667 1273.9553454 1934.78648741 1254 1953 C1253.39285156 1953.52722656 1252.78570313 1954.05445313 1252.16015625 1954.59765625 C1235.32749712 1970.13255934 1227.07008504 1993.98278708 1225.80996013 2016.37732852 C1225.73427644 2019.97524489 1225.71597451 2023.56860354 1225.7215271 2027.16731262 C1225.7165112 2028.54796935 1225.71063167 2029.92862316 1225.70397437 2031.30927294 C1225.68831671 2035.06523932 1225.68475163 2038.82113061 1225.68332577 2042.57712567 C1225.67960658 2046.64171444 1225.66443879 2050.70626319 1225.65071106 2054.77082825 C1225.628513 2061.80039354 1225.61345506 2068.82994445 1225.60334396 2075.85953712 C1225.58871482 2086.02295354 1225.56316629 2096.18631984 1225.53501268 2106.34970673 C1225.48962139 2122.84192985 1225.45297501 2139.33416021 1225.421875 2155.82641602 C1225.391658 2171.84042636 1225.35727081 2187.85441891 1225.31738281 2203.8684082 C1225.3149013 2204.86673524 1225.3124198 2205.86506228 1225.30986309 2206.89364165 C1225.29042163 2214.70203049 1225.27073948 2222.51041872 1225.25098133 2230.31880677 C1225.1543141 2268.54584953 1225.07862677 2306.77290765 1225 2345 C1176.16 2345 1127.32 2345 1077 2345 C1076.97421875 2321.12140625 1076.9484375 2297.2428125 1076.921875 2272.640625 C1076.8967078 2257.51040902 1076.87056269 2242.38020422 1076.83984375 2227.25 C1076.82375321 2219.29947975 1076.80790996 2211.34895906 1076.79248047 2203.3984375 C1076.79053653 2202.40206819 1076.78859259 2201.40569888 1076.78658974 2200.37913656 C1076.75562995 2184.3261109 1076.73861155 2168.27309952 1076.72680578 2152.22004965 C1076.71436318 2135.72625157 1076.68679192 2119.23252796 1076.64538693 2102.73877692 C1076.62034027 2092.5739712 1076.60687624 2082.40928911 1076.60857043 2072.24445209 C1076.60860035 2065.2593491 1076.59384006 2058.27437138 1076.56783572 2051.28931728 C1076.55329202 2047.26863213 1076.54489771 2043.24820379 1076.55419731 2039.2274971 C1076.61875815 2007.59250106 1073.55898933 1980.16124212 1050.8125 1956.3125 C1028.00675004 1934.55056384 999.83288444 1926.18855258 968.6875 1926.75390625 C941.29321173 1927.67161491 914.41146967 1938.83622999 895.375 1958.625 C878.27868491 1978.41750815 872.86168454 2003.01618594 872.84178162 2028.61036682 C872.83720851 2029.97931989 872.8322074 2031.34827158 872.82681805 2032.71722168 C872.81331275 2036.45940389 872.8058408 2040.20157708 872.79939139 2043.9437772 C872.79135378 2047.98661226 872.77766768 2052.02942874 872.76467896 2056.07225037 C872.74296369 2063.07023598 872.72480121 2070.06822352 872.70907402 2077.06622505 C872.68633017 2087.18407344 872.65819369 2097.30190122 872.62875474 2107.41973209 C872.58113408 2123.83653428 872.53785498 2140.25334492 872.49731445 2156.67016602 C872.45793137 2172.61450864 872.41648727 2188.55884373 872.37231445 2204.50317383 C872.36956495 2205.49653785 872.36681544 2206.48990187 872.36398262 2207.51336783 C872.34246258 2215.28250195 872.32082328 2223.05163574 872.29914629 2230.82076943 C872.19298479 2268.88049774 872.09722313 2306.94024578 872 2345 C823.49 2345 774.98 2345 725 2345 C724.67 2233.79 724.34 2122.58 724 2008 C708.62393738 2016.7863215 693.26812856 2025.56864099 677.984375 2034.5078125 C668.44177067 2040.08429156 658.85942207 2045.59211491 649.28222656 2051.10888672 C643.85340058 2054.23680148 638.42680719 2057.36858448 633 2060.5 C630.83334417 2061.75001879 628.6666775 2063.00001878 626.5 2064.25 C625.4275 2064.86875 624.355 2065.4875 623.25 2066.125 C405.50000004 2191.74999998 405.50000004 2191.74999998 402.24951172 2193.62524414 C400.08442929 2194.87435518 397.91939018 2196.12354129 395.75439453 2197.37280273 C390.31384294 2200.51202309 384.87252784 2203.64990563 379.4296875 2206.78515625 C368.97793801 2212.80747329 358.53700452 2218.84669337 348.125 2224.9375 C338.85500223 2230.35921178 329.54168248 2235.70204915 320.21154785 2241.01922607 C311.0871716 2246.22045129 301.99867226 2251.48027878 292.93310547 2256.78344727 C282.40915375 2262.93766742 271.84619863 2269.02369996 261.28222656 2275.10888672 C255.85340058 2278.23680148 250.42680719 2281.36858448 245 2284.5 C242.83334417 2285.75001879 240.6666775 2287.00001878 238.5 2288.25 C237.4275 2288.86875 236.355 2289.4875 235.25 2290.125 C69.5 2385.75 69.5 2385.75 66.24902344 2387.62548828 C64.08552524 2388.87371034 61.92211357 2390.12208239 59.75878906 2391.37060547 C54.29434983 2394.52405256 48.82836355 2397.67476096 43.359375 2400.8203125 C41.15616335 2402.08839113 38.95303763 2403.35661906 36.75 2404.625 C35.68458984 2405.23802979 34.61917969 2405.85105957 33.52148438 2406.48266602 C28.17600591 2409.565307 22.84820041 2412.67398363 17.546875 2415.83203125 C16.52754883 2416.43901855 15.50822266 2417.04600586 14.45800781 2417.67138672 C12.52780456 2418.82383722 10.59995149 2419.98023579 8.67480469 2421.14111328 C7.82305664 2421.65013184 6.97130859 2422.15915039 6.09375 2422.68359375 C5.34802734 2423.13275146 4.60230469 2423.58190918 3.83398438 2424.04467773 C2 2425 2 2425 0 2425 C0 1624.75 0 824.5 0 0 Z M893 281 C892.70332963 310.6736756 892.47332087 340.34728101 892.33615072 370.02212861 C892.31989186 373.52679912 892.30306563 377.03146669 892.28588867 380.53613281 C892.28247864 381.23383819 892.2790686 381.93154356 892.27555523 382.65039152 C892.21901266 393.94246632 892.11652933 405.2336793 891.99701365 416.5252431 C891.87537006 428.11465352 891.80419418 439.70356177 891.77684957 451.29358053 C891.75989611 457.80268467 891.72004468 464.30983547 891.62550926 470.8183136 C891.53723585 476.94533631 891.51005314 483.06960258 891.52960014 489.19720078 C891.52602479 491.44512291 891.50017544 493.69313754 891.45032883 495.9405098 C890.71417695 506.8012193 890.71417695 506.8012193 894.24931359 516.65860367 C897.72284303 519.76469143 901.67408333 521.32677235 906 523 C908.03308186 524.14571687 910.05077638 525.31973098 912.04296875 526.53515625 C914.09004474 527.71285349 916.13825822 528.88857538 918.1875 530.0625 C919.89042782 531.04151113 921.5933538 532.02052547 923.2961731 532.99972534 C925.04395461 534.00447299 926.79220596 535.00839914 928.54052734 536.01220703 C934.03139237 539.1672263 939.51547345 542.33397963 945 545.5 C947.16663141 546.75006112 949.33329814 548.000061 951.5 549.25 C1049 605.5 1049 605.5 1146.5 661.75 C1147.57266113 662.36883057 1148.64532227 662.98766113 1149.75048828 663.62524414 C1151.91557071 664.87435518 1154.08060982 666.12354129 1156.24560547 667.37280273 C1161.68615706 670.51202309 1167.12747216 673.64990563 1172.5703125 676.78515625 C1183.12731818 682.86821554 1193.67196119 688.97050358 1204.1875 695.125 C1215.72204183 701.87381145 1227.34626939 708.45957387 1239 715 C1276.2257537 679.89947349 1293.19004632 620.12330679 1298 571 C1298.0942627 570.05415039 1298.18852539 569.10830078 1298.28564453 568.13378906 C1304.02372333 503.40333305 1292.26553437 435.64069503 1254 382 C1253.58057129 381.40541992 1253.16114258 380.81083984 1252.72900391 380.19824219 C1244.9961014 369.2997432 1236.35697398 359.5272415 1227 350 C1226.39623535 349.38302246 1225.7924707 348.76604492 1225.17041016 348.13037109 C1220.09269925 342.98954895 1214.68804173 338.45742138 1209 334 C1208.48002441 333.58766113 1207.96004883 333.17532227 1207.42431641 332.75048828 C1161.4449494 296.56161506 1103.78447253 280.7482454 1045.91870117 280.88647461 C1044.24192812 280.88675733 1042.56515494 280.88659709 1040.88838196 280.8860321 C1036.3768879 280.88574745 1031.86542091 280.89159012 1027.3539331 280.89860606 C1022.62408447 280.90489526 1017.8942351 280.90544778 1013.16438293 280.90663147 C1004.2258198 280.90972847 995.28726903 280.9179197 986.34871131 280.92798096 C976.16480844 280.93919297 965.98090495 280.94466533 955.79699743 280.94967639 C934.86465808 280.96010382 913.93232982 280.97767141 893 281 Z " fill="#FFF985" transform="translate(0,0)"/>
<path d="M0 0 C42.3700769 -0.06889768 84.74014725 -0.12164566 127.11026921 -0.15319599 C132.12990939 -0.15694742 137.14954945 -0.16083045 142.16918945 -0.16479492 C143.16837039 -0.16558185 144.16755132 -0.16636878 145.19701046 -0.16717956 C161.30548434 -0.18017892 177.4139256 -0.20380207 193.52238023 -0.23145839 C210.09190937 -0.2596658 226.66142161 -0.27620839 243.23097378 -0.28226548 C253.42799615 -0.2863504 263.62492625 -0.29917795 273.82192016 -0.3237494 C280.84584806 -0.33979672 287.86972935 -0.34435824 294.89367419 -0.34050413 C298.92608091 -0.33861156 302.95832827 -0.34118669 306.99070549 -0.35761642 C334.09455876 -0.46249056 361.09074149 0.87397469 387.8125 5.75 C388.52460632 5.87694244 389.23671265 6.00388489 389.97039795 6.13467407 C430.19592566 13.32193939 469.79932502 25.90772282 506.03222656 44.97119141 C508.1865748 46.09754667 510.35420242 47.1955749 512.5234375 48.29296875 C529.23259103 56.81920314 544.96374569 66.79296638 560 78 C560.53786133 78.39896484 561.07572266 78.79792969 561.62988281 79.20898438 C585.09825881 96.69412114 609.09160301 117.32168078 627.0234375 140.46875 C628.87626716 142.84154372 630.82409125 145.10205599 632.81201172 147.36181641 C651.46427995 168.72882727 665.32806715 193.77807 678 219 C678.56412598 220.1142334 678.56412598 220.1142334 679.13964844 221.25097656 C700.54718227 263.84493355 712.34499012 311.60438141 716 359 C716.08677002 360.09030518 716.08677002 360.09030518 716.17529297 361.20263672 C720.20945447 414.36498452 714.14805343 468.21250275 698 519 C697.7417041 519.82274414 697.4834082 520.64548828 697.21728516 521.49316406 C682.91157931 566.45920414 659.01651686 616.62429665 625 650 C623.52929437 651.59283136 622.070819 653.1970452 620.625 654.8125 C619.83609375 655.69164062 619.0471875 656.57078125 618.234375 657.4765625 C616.41977049 659.52592354 614.6440959 661.59923731 612.875 663.6875 C604.69392326 673.07562085 595.62594886 682.09835155 586 690 C585.21133545 690.65935547 585.21133545 690.65935547 584.40673828 691.33203125 C526.03351941 740.11029997 455.0268581 771.38669685 379.88574219 782.54833984 C378.06413022 782.83344832 376.24603309 783.1430729 374.43457031 783.48681641 C353.02182096 787.49828915 331.16600788 787.2898229 309.46980858 787.23213124 C305.31477296 787.2233552 301.15974201 787.22642672 297.00469971 787.22793579 C289.83507271 787.22897585 282.66548259 787.22279228 275.49586487 787.21146011 C265.13027625 787.19508727 254.76470516 787.18998517 244.39910501 787.18748413 C227.57465369 787.18312533 210.75022196 787.16986595 193.92578125 787.15087891 C177.59895932 787.1324728 161.27214274 787.11833956 144.9453125 787.10986328 C143.93603937 787.10933783 142.92676623 787.10881239 141.88690907 787.10827102 C136.8228201 787.10566062 131.7587311 787.10313328 126.69464207 787.10064721 C84.79641444 787.07997134 42.89820835 787.04479582 1 787 C0.83091835 710.17034435 0.66744889 633.34067726 0.50904435 556.5109989 C0.50302659 553.5922868 0.4970046 550.6735747 0.49097854 547.75486261 C0.34428419 476.7007153 0.20085628 405.64655756 -0.06315851 111.64900339 C-0.06249676 109.42663312 -0.06185457 107.20426286 -0.06121445 104.98189259 C-0.05101343 69.9879214 -0.03265403 34.99395807 0 0 Z M153 136 C152.70332963 165.6736756 152.47332087 195.34728101 152.33615072 225.02212861 C152.31989186 228.52679912 152.30306563 232.03146669 152.28588867 235.53613281 C152.28247864 236.23383819 152.2790686 236.93154356 152.27555523 237.65039152 C152.21901266 248.94246632 152.11652933 260.2336793 151.99701365 271.5252431 C151.87537006 283.11465352 151.80419418 294.70356177 151.77684957 306.29358053 C151.75989611 312.80268467 151.72004468 319.30983547 151.62550926 325.8183136 C151.53723585 331.94533631 151.51005314 338.06960258 151.52960014 344.19720078 C151.52602479 346.44512291 151.50017544 348.69313754 151.45032883 350.9405098 C150.71417695 361.8012193 150.71417695 361.8012193 154.24931359 371.65860367 C157.72284303 374.76469143 161.67408333 376.32677235 166 378 C168.03308186 379.14571687 170.05077638 380.31973098 172.04296875 381.53515625 C174.09004474 382.71285349 176.13825822 383.88857538 178.1875 385.0625 C179.89042782 386.04151113 181.5933538 387.02052547 183.2961731 387.99972534 C185.04395461 389.00447299 186.79220596 390.00839914 188.54052734 391.01220703 C194.03139237 394.1672263 199.51547345 397.33397963 205 400.5 C207.16663141 401.75006112 209.33329814 403.000061 211.5 404.25 C309 460.5 309 460.5 406.5 516.75 C407.57266113 517.36883057 408.64532227 517.98766113 409.75048828 518.62524414 C411.91557071 519.87435518 414.08060982 521.12354129 416.24560547 522.37280273 C421.68615706 525.51202309 427.12747216 528.64990563 432.5703125 531.78515625 C443.12731818 537.86821554 453.67196119 543.97050358 464.1875 550.125 C475.72204183 556.87381145 487.34626939 563.45957387 499 570 C536.2257537 534.89947349 553.19004632 475.12330679 558 426 C558.0942627 425.05415039 558.18852539 424.10830078 558.28564453 423.13378906 C564.02372333 358.40333305 552.26553437 290.64069503 514 237 C513.58057129 236.40541992 513.16114258 235.81083984 512.72900391 235.19824219 C504.9961014 224.2997432 496.35697398 214.5272415 487 205 C486.39623535 204.38302246 485.7924707 203.76604492 485.17041016 203.13037109 C480.09269925 197.98954895 474.68804173 193.45742138 469 189 C468.48002441 188.58766113 467.96004883 188.17532227 467.42431641 187.75048828 C421.4449494 151.56161506 363.78447253 135.7482454 305.91870117 135.88647461 C304.24192812 135.88675733 302.56515494 135.88659709 300.88838196 135.8860321 C296.3768879 135.88574745 291.86542091 135.89159012 287.3539331 135.89860606 C282.62408447 135.90489526 277.8942351 135.90544778 273.16438293 135.90663147 C264.2258198 135.90972847 255.28726903 135.9179197 246.34871131 135.92798096 C236.16480844 135.93919297 225.98090495 135.94466533 215.79699743 135.94967639 C194.86465808 135.96010382 173.93232982 135.97767141 153 136 Z " fill="#FFFEFE" transform="translate(740,145)"/>
<path d="M0 0 C10.51278539 9.51461465 20.02346768 19.47487667 28.2890625 31.0078125 C31.13039031 28.220196 33.88448584 25.38304293 36.56640625 22.44140625 C72.9178974 -17.35862471 121.86613747 -41.37126785 175.2890625 -47.9921875 C175.98410889 -48.0864502 176.67915527 -48.18071289 177.39526367 -48.27783203 C235.83102532 -55.29589858 297.63552707 -40.3722756 344.4296875 -4.328125 C349.06218507 -0.54365294 353.46839303 3.44299254 357.7890625 7.57519531 C358.78387458 8.52531857 359.7838508 9.4700659 360.7890625 10.40917969 C399.01616152 46.17242272 415.83618822 97.85368124 418.2890625 149.0078125 C418.41526855 154.10183364 418.42074462 159.19358689 418.40931702 164.2888031 C418.40975436 165.76605325 418.41063226 167.24330332 418.41190618 168.72055298 C418.4141191 172.7342316 418.41017433 176.74788302 418.40512812 180.76155818 C418.40077725 185.10693836 418.40227331 189.45231722 418.4030304 193.79769897 C418.40355271 201.31124162 418.40043657 208.82477552 418.39479256 216.33831596 C418.38663778 227.20140339 418.38405827 238.06448663 418.38280457 248.92757679 C418.38062028 266.55564277 418.37397713 284.18370411 418.36450195 301.81176758 C418.35531168 318.92765276 418.34823876 336.04353667 418.34399414 353.15942383 C418.34373142 354.21586641 418.34346869 355.27230898 418.34319801 356.36076497 C418.3418929 361.66105074 418.34062921 366.96133652 418.33938611 372.26162231 C418.32903291 416.17702317 418.31060509 460.09241542 418.2890625 504.0078125 C369.4490625 504.0078125 320.6090625 504.0078125 270.2890625 504.0078125 C270.26328125 480.20140625 270.2375 456.395 270.2109375 431.8671875 C270.18577024 416.78254442 270.15962508 401.69791254 270.12890625 386.61328125 C270.11281572 378.68668678 270.09697247 370.76009188 270.08154297 362.83349609 C270.07862706 361.34344053 270.07862706 361.34344053 270.07565224 359.82328284 C270.04469278 343.81874773 270.02767414 327.81422695 270.01586828 311.80966756 C270.00342551 295.3655899 269.97585388 278.92158694 269.93444943 262.47755647 C269.90940324 252.34346011 269.89593871 242.20948777 269.89763293 232.07536003 C269.89766285 225.11128166 269.88290186 218.14732892 269.85689822 211.18329957 C269.84235507 207.17476578 269.83395972 203.16648957 269.84325981 199.15793419 C269.90714288 167.98938263 267.15461201 139.51662858 244.36328125 115.9921875 C223.7222874 95.51803 197.14868245 85.85081953 168.2890625 85.6328125 C141.70946524 85.85620917 114.2444079 93.79429991 94.2890625 112.0078125 C93.68191406 112.53503906 93.07476563 113.06226563 92.44921875 113.60546875 C75.61655962 129.14037184 67.35914754 152.99059958 66.09902263 175.38514102 C66.02333894 178.98305739 66.00503701 182.57641604 66.0105896 186.17512512 C66.0055737 187.55578185 65.99969417 188.93643566 65.99303687 190.31708544 C65.97737921 194.07305182 65.97381413 197.82894311 65.97238827 201.58493817 C65.96866908 205.64952694 65.95350129 209.71407569 65.93977356 213.77864075 C65.9175755 220.80820604 65.90251756 227.83775695 65.89240646 234.86734962 C65.87777732 245.03076604 65.85222879 255.19413234 65.82407518 265.35751923 C65.77868389 281.84974235 65.74203751 298.34197271 65.7109375 314.83422852 C65.6807205 330.84823886 65.64633331 346.86223141 65.60644531 362.8762207 C65.60272305 364.37371126 65.60272305 364.37371126 65.59892559 365.90145415 C65.57948413 373.70984299 65.55980198 381.51823122 65.54004383 389.32661927 C65.4433766 427.55366203 65.36768927 465.78072015 65.2890625 504.0078125 C16.4490625 504.0078125 -32.3909375 504.0078125 -82.7109375 504.0078125 C-82.73671875 480.12921875 -82.7625 456.250625 -82.7890625 431.6484375 C-82.8142297 416.51822152 -82.84037481 401.38801672 -82.87109375 386.2578125 C-82.88718429 378.30729225 -82.90302754 370.35677156 -82.91845703 362.40625 C-82.92040097 361.40988069 -82.92234491 360.41351138 -82.92434776 359.38694906 C-82.95530755 343.3339234 -82.97232595 327.28091202 -82.98413172 311.22786215 C-82.99657432 294.73406407 -83.02414558 278.24034046 -83.06555057 261.74658942 C-83.09059723 251.5817837 -83.10406126 241.41710161 -83.10236707 231.25226459 C-83.10233715 224.2671616 -83.11709744 217.28218388 -83.14310178 210.29712978 C-83.15764548 206.27644463 -83.16603979 202.25601629 -83.15674019 198.2353096 C-83.09217935 166.60031356 -86.15194817 139.16905462 -108.8984375 115.3203125 C-131.70418746 93.55837634 -159.87805306 85.19636508 -191.0234375 85.76171875 C-218.41772577 86.67942741 -245.29946783 97.84404249 -264.3359375 117.6328125 C-281.43225259 137.42532065 -286.84925296 162.02399844 -286.86915588 187.61817932 C-286.87372899 188.98713239 -286.8787301 190.35608408 -286.88411945 191.72503418 C-286.89762475 195.46721639 -286.9050967 199.20938958 -286.91154611 202.9515897 C-286.91958372 206.99442476 -286.93326982 211.03724124 -286.94625854 215.08006287 C-286.96797381 222.07804848 -286.98613629 229.07603602 -287.00186348 236.07403755 C-287.02460733 246.19188594 -287.05274381 256.30971372 -287.08218276 266.42754459 C-287.12980342 282.84434678 -287.17308252 299.26115742 -287.21362305 315.67797852 C-287.25300613 331.62232114 -287.29445023 347.56665623 -287.33862305 363.51098633 C-287.34137255 364.50435035 -287.34412206 365.49771437 -287.34695488 366.52118033 C-287.36847492 374.29031445 -287.39011422 382.05944824 -287.41179121 389.82858193 C-287.51795271 427.88831024 -287.61371437 465.94805828 -287.7109375 504.0078125 C-336.2209375 504.0078125 -384.7309375 504.0078125 -434.7109375 504.0078125 C-434.7109375 325.1478125 -434.7109375 146.2878125 -434.7109375 -37.9921875 C-386.2009375 -37.9921875 -337.6909375 -37.9921875 -287.7109375 -37.9921875 C-287.7109375 -22.8121875 -287.7109375 -7.6321875 -287.7109375 8.0078125 C-285.0709375 5.6978125 -282.4309375 3.3878125 -279.7109375 1.0078125 C-269.52517781 -7.22492542 -259.16456894 -14.64083102 -247.7109375 -20.9921875 C-246.99744141 -21.3953418 -246.28394531 -21.79849609 -245.54882812 -22.21386719 C-227.56717763 -32.32368883 -208.82737269 -39.44817652 -188.7109375 -43.9921875 C-188.03788574 -44.14526367 -187.36483398 -44.29833984 -186.67138672 -44.45605469 C-122.35277386 -58.68512887 -49.9011373 -44.06583029 0 0 Z " fill="#FFFEFE" transform="translate(1159.7109375,1840.9921875)"/>
<path d="M0 0 C1.02772522 -0.00067474 2.05545044 -0.00134949 3.11431885 -0.00204468 C18.91712343 0.01442973 34.33618038 0.5065873 49.9375 3.25 C50.93217285 3.42160645 51.9268457 3.59321289 52.95166016 3.77001953 C95.84380777 11.40909532 137.18698479 29.46910717 170.9375 57.25 C171.48148438 57.6924707 172.02546875 58.13494141 172.5859375 58.59082031 C186.27220442 69.77792444 199.24605861 82.13886964 209.9375 96.25 C210.34742187 96.77819336 210.75734375 97.30638672 211.1796875 97.85058594 C234.91265526 128.482264 252.17118551 164.53429611 260.9375 202.25 C261.22681396 203.48218262 261.22681396 203.48218262 261.52197266 204.73925781 C269.81082664 241.08880929 277.16769435 299.7896113 259.9375 334.25 C216.25112282 335.18382794 172.5831798 335.3894842 128.8882132 335.35353777 C119.70861137 335.34619629 110.52901098 335.34487106 101.34940663 335.34374207 C84.99416559 335.3415815 68.63892968 335.33500511 52.28369141 335.32543945 C36.44547551 335.31618613 20.60726104 335.30914466 4.76904297 335.30493164 C3.78416286 335.30466892 2.79928275 335.30440619 1.78455779 335.30413551 C-3.15886801 335.30282998 -8.10229381 335.30156639 -13.04571962 335.30032361 C-53.71798331 335.29004481 -94.39024135 335.27251106 -135.0625 335.25 C-133.83060002 339.06329836 -132.58447315 342.87180666 -131.3359375 346.6796875 C-130.81858032 348.28203247 -130.81858032 348.28203247 -130.29077148 349.91674805 C-119.71311801 382.04283846 -96.09619458 408.82147821 -66.0625 424.25 C-21.89598507 445.52591257 32.27375126 445.60830844 78.17578125 429.84375 C102.34781795 420.65480258 125.5329328 405.42456091 141.9375 385.25 C145.07099687 386.64038759 147.19266164 388.2574226 149.60748291 390.67947388 C150.67591431 391.74378128 150.67591431 391.74378128 151.76593018 392.82958984 C152.53701111 393.60786133 153.30809204 394.38613281 154.10253906 395.18798828 C154.9224231 396.00758026 155.74230713 396.82717224 156.58703613 397.67160034 C159.29716624 400.38312432 162.00014248 403.10166492 164.703125 405.8203125 C166.58027429 407.7011917 168.457812 409.58167487 170.33587646 411.4616394 C174.77384406 415.90582026 179.20668925 420.35507422 183.63771415 424.80617607 C188.68333409 429.87415976 193.73464216 434.93645771 198.78643465 439.99828744 C209.17646097 450.40921229 219.55933072 460.82725506 229.9375 471.25 C225.80271628 477.57046739 220.90556476 482.63486769 215.5625 487.9375 C215.06884949 488.4293277 214.57519897 488.9211554 214.06658936 489.42788696 C206.45501919 496.99212188 198.71346792 504.05371866 189.9375 510.25 C189.32277832 510.69311523 188.70805664 511.13623047 188.07470703 511.59277344 C120.02452154 560.53426192 33.63925785 573.95483585 -48.08984375 561.18359375 C-100.88802217 552.35524196 -152.81707957 530.30673352 -192.0625 493.25 C-193.28781703 492.20380771 -194.51697636 491.16209828 -195.75 490.125 C-206.09935876 481.07982873 -215.67753705 471.13473895 -224.0625 460.25 C-225.06569572 458.98641473 -226.06965842 457.72343816 -227.07421875 456.4609375 C-273.70154033 397.31907479 -290.69987582 321.56456862 -282.875 247.3125 C-279.49622966 218.94191378 -272.47136603 191.45412896 -261.0625 165.25 C-260.75231934 164.52796387 -260.44213867 163.80592773 -260.12255859 163.06201172 C-252.5556979 145.61941744 -242.5340234 129.38634744 -231.0625 114.25 C-230.63114746 113.67588379 -230.19979492 113.10176758 -229.75537109 112.51025391 C-223.03013536 103.59974625 -215.81654981 95.27732029 -208.0625 87.25 C-207.46356934 86.62915527 -206.86463867 86.00831055 -206.24755859 85.36865234 C-198.57933942 77.46296574 -190.82415678 69.95354948 -182.0625 63.25 C-181.49515137 62.80624023 -180.92780273 62.36248047 -180.34326172 61.90527344 C-137.49309528 28.39990935 -87.16859939 7.32182625 -33.0625 1.25 C-31.94186157 1.10860596 -31.94186157 1.10860596 -30.79858398 0.96435547 C-20.58209208 -0.17160057 -10.26573422 0.00604313 0 0 Z M-35.0625 126.25 C-35.78630859 126.42692383 -36.51011719 126.60384766 -37.25585938 126.78613281 C-58.679823 132.22192376 -78.71577231 142.22612888 -95.0625 157.25 C-95.60326172 157.74306641 -96.14402344 158.23613281 -96.70117188 158.74414062 C-112.41246806 173.22936018 -123.88142073 190.80486097 -131.5 210.75 C-131.7472583 211.39646484 -131.9945166 212.04292969 -132.24926758 212.70898438 C-133.76187677 216.87500042 -134.48746043 220.86936886 -135.0625 225.25 C-99.69718352 225.3309503 -64.33359233 225.20516805 -28.96875 225.03125 C-27.85499371 225.02577274 -26.74123741 225.02029549 -25.59373093 225.01465225 C-11.78616352 224.94651566 2.02139128 224.87598879 15.8289423 224.80461788 C27.75734807 224.74301814 39.68576204 224.68308031 51.61417675 224.62324238 C76.05529364 224.50060027 100.49640018 224.37599552 124.9375 224.25 C120.95796458 195.34824672 104.10510642 165.02616721 80.9375 147.25 C56.81190177 130.20656276 31.02275227 123.02338597 1.625 123 C0.86494659 122.99932526 0.10489319 122.99865051 -0.67819214 122.99795532 C-12.36438688 123.01443406 -23.66051287 123.45624296 -35.0625 126.25 Z " fill="#FFFFFF" transform="translate(1944.0625,1790.75)"/>
<path d="M0 0 C1.50232681 -0.00101212 1.50232681 -0.00101212 3.03500366 -0.00204468 C18.67322028 0.01466732 33.93552181 0.53911183 49.375 3.25 C50.89311279 3.51538574 50.89311279 3.51538574 52.44189453 3.78613281 C100.9729225 12.56858794 145.52021986 33.73471972 182.015625 67.11328125 C184.05667962 68.96171979 186.13874282 70.73334885 188.25 72.5 C229.90533246 109.06319763 255.047562 166.76491592 264.375 220.25 C264.55289063 221.26723145 264.73078125 222.28446289 264.9140625 223.33251953 C270.51931224 257.31434609 269.10388761 294.06575574 261.80200195 327.68066406 C261.53410355 328.91786194 261.26620514 330.15505981 260.9901886 331.42974854 C260.68567024 332.82577301 260.68567024 332.82577301 260.375 334.25 C216.62414295 335.18599567 172.89163895 335.38942485 129.13216986 335.35353777 C119.92458141 335.34619687 110.71699439 335.34487111 101.50940344 335.34374207 C85.1042481 335.34158141 68.69909789 335.33500475 52.29394531 335.32543945 C36.40722681 335.31618638 20.52050973 335.30914478 4.63378906 335.30493164 C3.15198841 335.30453756 3.15198841 335.30453756 1.64025238 335.30413551 C-3.31815749 335.30282998 -8.27656736 335.30156639 -13.23497725 335.30032361 C-54.03165505 335.29004452 -94.82832722 335.27251049 -135.625 335.25 C-134.40532332 338.87481678 -133.17068781 342.49437541 -131.93359375 346.11328125 C-131.5934021 347.12491333 -131.25321045 348.13654541 -130.90270996 349.17883301 C-124.23327828 368.60311476 -113.65917821 384.35296092 -99.625 399.25 C-99.02558594 399.91386719 -98.42617187 400.57773437 -97.80859375 401.26171875 C-73.53968505 427.10312693 -36.06289856 439.03082821 -1.41430664 440.37451172 C47.99168444 441.48911475 94.85717507 431.03220468 131.44140625 396.1015625 C135.13199951 392.52955695 138.78289676 388.92107043 142.375 385.25 C147.687876 389.68743753 152.63237163 394.36957049 157.51342773 399.27490234 C158.29473557 400.05606415 159.0760434 400.83722595 159.88102722 401.64205933 C162.4425958 404.20432017 165.00061188 406.77009637 167.55859375 409.3359375 C169.34199007 411.12120044 171.12560846 412.90624158 172.90943909 414.69107056 C177.11139203 418.89644123 181.31111407 423.10403107 185.50974089 427.31272185 C190.29379277 432.10798931 195.08071793 436.90038414 199.86787498 441.69255137 C209.70676179 451.54186304 219.54207255 461.39473914 229.375 471.25 C227.54896898 475.15301087 225.04951283 478.06251085 222.125 481.1875 C221.59414795 481.75597656 221.0632959 482.32445312 220.51635742 482.91015625 C189.65519973 515.55548165 150.99045788 537.66758511 108.375 551.25 C107.55386719 551.51264648 106.73273438 551.77529297 105.88671875 552.04589844 C33.02101602 574.96516497 -51.91251176 570.18701744 -121.625 539.25 C-122.43340332 538.89856934 -123.24180664 538.54713867 -124.07470703 538.18505859 C-142.9997557 529.91137106 -160.31150202 518.86977967 -176.625 506.25 C-178.00558594 505.18845703 -178.00558594 505.18845703 -179.4140625 504.10546875 C-185.39237415 499.41351208 -191.02197834 494.37987761 -196.625 489.25 C-197.60855469 488.37085938 -198.59210938 487.49171875 -199.60546875 486.5859375 C-252.35726081 439.29469826 -279.96220831 371.03706537 -284.16040039 301.23120117 C-284.33521889 297.90463526 -284.48870186 294.57834712 -284.625 291.25 C-284.65964355 290.44385254 -284.69428711 289.63770508 -284.72998047 288.80712891 C-286.8465912 231.42199945 -271.27521751 170.21049191 -237.625 123.25 C-237.12097656 122.5398877 -236.61695313 121.82977539 -236.09765625 121.09814453 C-228.81631684 110.87189851 -221.29254737 101.32759448 -212.625 92.25 C-211.3660227 90.82035584 -210.11496369 89.38366607 -208.875 87.9375 C-203.27355162 81.49783013 -197.14462399 75.74713638 -190.625 70.25 C-190.10357422 69.80414551 -189.58214844 69.35829102 -189.04492188 68.89892578 C-171.72546392 54.14835949 -152.67051625 41.95904731 -132.625 31.25 C-131.3241748 30.55245605 -131.3241748 30.55245605 -129.99707031 29.84082031 C-100.23197854 14.13970693 -66.97855901 4.98539181 -33.625 1.25 C-32.79210449 1.15428711 -31.95920898 1.05857422 -31.10107422 0.95996094 C-20.76383594 -0.06731938 -10.37778787 0.0062846 0 0 Z M-34.625 126.25 C-35.41438965 126.44867676 -36.2037793 126.64735352 -37.01708984 126.85205078 C-72.34119419 135.96816895 -102.08871075 157.11343253 -120.9362793 188.58178711 C-131.16146097 205.97527637 -131.16146097 205.97527637 -135.625 225.25 C-99.89379495 225.32970002 -64.16433647 225.20697764 -28.43359375 225.03125 C-26.76305585 225.02303411 -26.76305585 225.02303411 -25.0587697 225.01465225 C-11.25968032 224.94654937 2.53939622 224.87601441 16.33846891 224.80461788 C28.25964023 224.74299665 40.18081991 224.68306896 52.10200036 224.62324238 C76.52634289 224.50063268 100.95067487 224.37602525 125.375 224.25 C124.75211744 221.69276435 124.12506585 219.13667183 123.49560547 216.58105469 C123.32099289 215.86231171 123.14638031 215.14356873 122.96647644 214.40304565 C121.60051705 208.87802512 119.82915041 203.698151 117.5 198.5 C117.15050293 197.70053955 116.80100586 196.9010791 116.44091797 196.07739258 C115.43418573 193.79437474 114.40760087 191.52140709 113.375 189.25 C112.6325 187.57744141 112.6325 187.57744141 111.875 185.87109375 C99.35000279 159.14872754 75.85929119 139.93764164 48.4765625 129.75 C44.49542501 128.36421471 40.46870925 127.24993088 36.375 126.25 C35.7135498 126.08628906 35.05209961 125.92257812 34.37060547 125.75390625 C13.09398018 120.8018088 -13.46036987 120.75006226 -34.625 126.25 Z " fill="#FFFFFF" transform="translate(1809.625,378.75)"/>
<path d="M0 0 C1.11761719 0.18272461 2.23523437 0.36544922 3.38671875 0.55371094 C52.71118012 8.88850477 99.2090542 30.45664514 138 62 C138.52948242 62.42651855 139.05896484 62.85303711 139.60449219 63.29248047 C154.36948958 75.27088176 168.53993347 88.79874853 180 104 C180.91172808 105.16096771 181.82457113 106.32106032 182.73828125 107.48046875 C220.27835879 155.67397836 239.75347246 214.41115166 239.39111328 275.35717773 C239.37498229 278.56602316 239.39111577 281.7736131 239.41015625 284.98242188 C239.4293878 303.59803176 237.68960131 322.0449272 233.6875 340.25 C233.47585205 341.23266846 233.2642041 342.21533691 233.04614258 343.2277832 C225.64689138 376.59035817 212.25832274 408.74956813 193 437 C192.56445801 437.64501465 192.12891602 438.2900293 191.68017578 438.95458984 C186.08348012 447.19363163 179.96950418 454.88795938 173.41162109 462.38354492 C172.41339526 463.52661882 171.42219679 464.67584756 170.43603516 465.8293457 C159.78248217 478.20821404 148.06156025 490.16237916 135 500 C133.81573773 500.92362263 132.63219741 501.84817138 131.44921875 502.7734375 C106.56912642 522.04688103 78.8548437 537.02533287 49 547 C48.17048828 547.28278809 47.34097656 547.56557617 46.48632812 547.85693359 C-24.55671929 571.78282608 -106.61524369 566.68649598 -175 537 C-175.87414551 536.62085449 -176.74829102 536.24170898 -177.64892578 535.85107422 C-203.87954098 524.30919551 -227.39955894 507.70614917 -248.43359375 488.34765625 C-250.67558956 486.29675902 -252.94791029 484.29522467 -255.25 482.3125 C-261.70483388 476.68588309 -267.49220976 470.54871207 -273 464 C-273.45648926 463.45730469 -273.91297852 462.91460938 -274.38330078 462.35546875 C-297.66943885 434.53423056 -316.14155527 403.77998995 -327 369 C-327.26119629 368.17886719 -327.52239258 367.35773438 -327.79150391 366.51171875 C-331.07107218 356.09164511 -333.64290814 345.59327355 -335.75 334.875 C-335.94867676 333.87581543 -336.14735352 332.87663086 -336.35205078 331.84716797 C-339.48459273 315.1214877 -340.3506092 298.51294207 -340.31567383 281.52270508 C-340.31252041 278.33314553 -340.33605985 275.14452367 -340.36132812 271.95507812 C-340.55121026 210.32425518 -318.82618253 150.74711976 -280 103 C-279.57348145 102.47051758 -279.14696289 101.94103516 -278.70751953 101.39550781 C-266.73103881 86.63287777 -253.20464758 72.45173739 -238 61 C-236.81573773 60.07637737 -235.63219741 59.15182862 -234.44921875 58.2265625 C-191.52353699 24.98417883 -140.01797927 3.86274992 -86 -2 C-85.18378174 -2.0942627 -84.36756348 -2.18852539 -83.52661133 -2.28564453 C-56.30348642 -5.01944976 -26.96668101 -4.58163573 0 0 Z M-148 173 C-148.74378906 173.66257812 -149.48757812 174.32515625 -150.25390625 175.0078125 C-173.26724311 196.48692691 -187.40449654 230.97500377 -189.11315918 262.05856323 C-189.17945427 264.2190797 -189.21622057 266.3776437 -189.23828125 268.5390625 C-189.25290405 269.73181793 -189.25290405 269.73181793 -189.26782227 270.94866943 C-189.43416904 288.0229179 -189.32424131 304.36802314 -185 321 C-184.66874329 322.42826317 -184.33800108 323.85664577 -184.0078125 325.28515625 C-178.07018036 349.2513441 -164.90287281 369.43788878 -148 387 C-147.43152344 387.63164063 -146.86304687 388.26328125 -146.27734375 388.9140625 C-123.2294545 413.789278 -87.79734572 423.73249601 -55 425 C-20.27969869 425.3738313 14.60365292 416.52271676 41 393 C42.25876953 391.93845703 42.25876953 391.93845703 43.54296875 390.85546875 C54.11094272 381.7620958 62.20607146 371.13299562 69 359 C69.33241699 358.40767578 69.66483398 357.81535156 70.00732422 357.20507812 C91.11286638 319.01505928 93.94097908 272.37111283 82.17749023 230.75341797 C76.03245113 210.38510456 65.28714501 192.64177802 51 177 C50.28457031 176.20207031 49.56914062 175.40414062 48.83203125 174.58203125 C23.64228487 147.87995488 -11.9258899 136.6518855 -47.640625 134.8125 C-85.40511214 134.10990489 -120.36575949 147.34031516 -148 173 Z " fill="#FFFFFF" transform="translate(3011,382)"/>
<path d="M0 0 C1.16354004 0.20399414 2.32708008 0.40798828 3.52587891 0.61816406 C63.0774448 11.38021214 123.00725109 39.41559613 159 90 C157.59895711 93.16477549 155.94811421 95.30293141 153.50805664 97.74591064 C152.78458038 98.47502655 152.06110413 99.20414246 151.31570435 99.95535278 C150.52187347 100.74513519 149.7280426 101.5349176 148.91015625 102.34863281 C147.65632645 103.60771957 147.65632645 103.60771957 146.37716675 104.89224243 C144.08758744 107.1891118 141.7935697 109.48142716 139.49717331 111.7714777 C137.09546121 114.16812411 134.698635 116.56964874 132.30102539 118.97039795 C128.27621513 122.99884478 124.24721023 127.02306027 120.21582031 131.04492188 C115.55070392 135.69913954 110.89285623 140.36053851 106.23869038 145.02570462 C102.24402484 149.02943421 98.2454899 153.02926803 94.24367046 157.0258472 C91.85275917 159.41363583 89.4632308 161.80276623 87.07717896 164.19541168 C84.41952919 166.85811266 81.75560112 169.51436472 79.08984375 172.16894531 C78.29601288 172.96682465 77.50218201 173.76470398 76.68429565 174.58676147 C75.9608194 175.30459808 75.23734314 176.02243469 74.49194336 176.76202393 C73.86219101 177.39102222 73.23243866 178.02002052 72.58360291 178.66807938 C71 180 71 180 69 180 C67.54597658 178.3623728 66.16151322 176.66265804 64.8125 174.9375 C41.25616657 145.67844662 4.38598352 128.51144525 -32.546875 124.28125 C-56.70321576 122.46778072 -86.59701392 121.64481152 -107 137 C-114.0317743 143.51434185 -117.43998647 150.44016246 -118.05859375 160.03515625 C-117.85825437 170.17232869 -114.24954731 178.53618545 -107.27734375 185.79296875 C-89.25169059 201.45342687 -60.77199153 207.7949666 -38.31317139 213.84338379 C28.96940139 232.01365935 98.67356907 252.0433209 136.1875 315.8125 C143.27054207 328.27948796 147.42372262 341.94007297 150 356 C150.17805176 356.96470215 150.35610352 357.9294043 150.53955078 358.92333984 C152.2604911 369.40123653 152.40048694 379.77833149 152.375 390.375 C152.3737915 391.30374939 152.37258301 392.23249878 152.37133789 393.18939209 C152.21903214 436.36342768 138.61333265 475.37563363 108.32519531 506.62353516 C107.20531544 507.78674126 106.11129731 508.97476283 105.0234375 510.16796875 C76.69971763 540.42568711 31.86680685 555.05609644 -8 561 C-9.47992432 561.22429687 -9.47992432 561.22429687 -10.98974609 561.453125 C-43.57681783 566.14525884 -78.49506018 566.26301979 -111 561 C-112.23137695 560.80132324 -113.46275391 560.60264648 -114.73144531 560.39794922 C-133.22040087 557.30874325 -151.1906509 552.87916982 -169 547 C-169.96196289 546.68305176 -170.92392578 546.36610352 -171.91503906 546.03955078 C-197.59759788 537.43558136 -223.97680012 525.94685069 -246 510 C-246.60908203 509.55930176 -247.21816406 509.11860352 -247.84570312 508.66455078 C-261.38105131 498.81975197 -273.8372506 488.32807459 -285.75 476.5625 C-287.09239746 475.24668945 -287.09239746 475.24668945 -288.46191406 473.90429688 C-289.71053223 472.65422852 -289.71053223 472.65422852 -290.984375 471.37890625 C-291.73428711 470.6319751 -292.48419922 469.88504395 -293.25683594 469.11547852 C-296.10801346 465.655331 -296.10801346 465.655331 -296 463 C-294.28630544 460.84898049 -292.63782582 459.08078416 -290.65625 457.203125 C-290.0943396 456.65066101 -289.5324292 456.09819702 -288.95349121 455.5289917 C-287.1470523 453.75720315 -285.32443863 452.00323164 -283.5 450.25 C-281.70753216 448.50786063 -279.91866558 446.76215032 -278.13220215 445.01385498 C-277.01996063 443.92753352 -275.90378806 442.84521521 -274.78283691 441.7678833 C-272.00762677 439.0786707 -269.39033354 436.33094617 -266.88061523 433.39160156 C-261.73216213 427.43436999 -256.08074082 421.95743446 -250.50390625 416.40625 C-249.30299797 415.20721046 -248.102313 414.00794723 -246.90184021 412.80847168 C-243.76577715 409.67619792 -240.62672111 406.5469409 -237.48699951 403.41833496 C-234.27399999 400.2156273 -231.06388529 397.01003092 -227.85351562 393.8046875 C-221.57180629 387.53365211 -215.28692642 381.26580477 -209 375 C-207.89143564 375.93889073 -206.78449454 376.87969825 -205.67822266 377.82128906 C-204.75331528 378.60684174 -204.75331528 378.60684174 -203.8097229 379.40826416 C-201.69014661 381.27253053 -199.73299747 383.24998897 -197.78027344 385.28564453 C-169.09994873 415.17177858 -128.45434769 430.87009338 -88 436 C-86.95457031 436.13277344 -85.90914062 436.26554687 -84.83203125 436.40234375 C-56.92652169 439.15146952 -24.07427012 438.90470118 -0.3046875 422.09375 C2.12315778 419.88811429 3.61017865 417.83084949 5.25 415 C5.75015625 414.154375 6.2503125 413.30875 6.765625 412.4375 C10.57676671 404.91170117 10.20033986 393.98172138 8.24609375 385.87109375 C7.30836697 383.46242301 6.26480859 381.25197627 5 379 C4.1646875 377.453125 4.1646875 377.453125 3.3125 375.875 C-10.58589215 358.59591786 -33.23290276 351.6824331 -53.77734375 345.80078125 C-54.79802444 345.50560608 -55.81870514 345.21043091 -56.87031555 344.90631104 C-63.92444812 342.87060006 -70.98681347 340.86381759 -78.04925537 338.85716248 C-82.6065539 337.56087333 -87.16234202 336.25935605 -91.71735764 334.95506954 C-95.02358704 334.00890539 -98.33098721 333.06732422 -101.64135742 332.13574219 C-126.27573708 325.19629744 -150.54227611 317.26239835 -173.51782227 305.82861328 C-175.48910674 304.84936399 -177.47109198 303.89462239 -179.45507812 302.94140625 C-212.19790038 287.01445484 -241.1374348 261.22432591 -253.37109375 226.15625 C-267.86914991 182.7521974 -265.27012801 131.87801279 -245.125 90.75 C-228.005565 57.04712749 -198.71571783 33.74510003 -165 18 C-163.8965625 17.47792969 -162.793125 16.95585937 -161.65625 16.41796875 C-143.60676143 8.27421141 -124.4571464 3.36831289 -105 0 C-103.63681641 -0.2477417 -103.63681641 -0.2477417 -102.24609375 -0.50048828 C-69.76178039 -6.1501881 -32.43615274 -5.76117831 0 0 Z " fill="#FFFFFF" transform="translate(3869,381)"/>
<path d="M0 0 C1.5354245 -0.00101212 1.5354245 -0.00101212 3.10186768 -0.00204468 C80.03645419 0.07839151 150.26146253 28.48145921 204.6875 82.9375 C207.10849248 85.37074171 209.52539382 87.8079498 211.9375 90.25 C210.66794212 93.02872662 209.36509918 95.07025929 207.20051575 97.22076416 C206.64413422 97.77844986 206.08775269 98.33613556 205.51451111 98.91072083 C204.90619949 99.51027084 204.29788788 100.10982086 203.67114258 100.72753906 C203.02860535 101.36876205 202.38606812 102.00998505 201.72406006 102.67063904 C199.59794075 104.79026619 197.464936 106.90282785 195.33203125 109.015625 C193.84899371 110.49238874 192.36647241 111.96967107 190.88444519 113.44744873 C186.9770264 117.34155719 183.06409061 121.23007057 179.14953613 125.11700439 C172.90082514 131.32264165 166.65869424 137.53487799 160.41995811 143.75054169 C158.24720668 145.91313736 156.07103436 148.07224529 153.89448547 150.23101807 C152.5464809 151.57218628 151.19858995 152.9134687 149.85083008 154.25488281 C149.25263962 154.84633591 148.65444916 155.437789 148.03813171 156.04716492 C144.34331371 159.73216651 140.85647776 163.55045543 137.44950676 167.5032835 C134.20354052 171.25312308 130.72188279 174.77355714 127.25 178.3125 C126.13141602 179.4871582 126.13141602 179.4871582 124.99023438 180.68554688 C123.90645508 181.78672852 123.90645508 181.78672852 122.80078125 182.91015625 C122.15407471 183.57668213 121.50736816 184.24320801 120.84106445 184.92993164 C118.9375 186.25 118.9375 186.25 116.84936523 186.10473633 C113.81955166 184.75019958 111.89101634 182.28039071 109.6875 179.875 C82.77074653 151.9244356 42.58792723 140.8005589 4.953125 139.06640625 C-34.51529084 138.34648879 -70.36077622 152.21072701 -99.0625 179.25 C-99.72636719 179.84941406 -100.39023438 180.44882812 -101.07421875 181.06640625 C-127.4882652 205.87310708 -138.03856916 242.63685472 -139.25390625 277.828125 C-140.05975936 316.97879617 -129.2171848 353.85164157 -103.0625 383.25 C-102.05988834 384.49790619 -101.0593438 385.74748156 -100.0625 387 C-95.99092365 391.72489519 -90.97068526 395.44203881 -86.0625 399.25 C-85.19496094 399.93320312 -84.32742187 400.61640625 -83.43359375 401.3203125 C-51.47023966 425.61436702 -9.43209447 430.46678331 29.42822266 425.40771484 C65.1469942 420.09684808 93.23965553 402.89476569 117.9375 377.25 C123.55726244 381.92749101 128.74521336 386.92121485 133.90209961 392.10107422 C134.77118958 392.97001816 135.64027954 393.8389621 136.53570557 394.73423767 C138.89860345 397.09770944 141.25927261 399.46336528 143.61894679 401.83005285 C146.09283681 404.31022926 148.56959282 406.78754038 151.04603577 409.26516724 C155.72626409 413.94849338 160.40393926 418.63436089 165.08068424 423.3211652 C170.40886436 428.66055478 175.73991237 433.99707705 181.07119358 439.33336997 C192.02980509 450.30241075 202.98484076 461.27501563 213.9375 472.25 C212.39041341 475.5006706 210.74296634 477.70161378 208.19140625 480.26171875 C207.44205811 481.01517578 206.69270996 481.76863281 205.9206543 482.54492188 C205.12183838 483.33447266 204.32302246 484.12402344 203.5 484.9375 C202.68249268 485.74896484 201.86498535 486.56042969 201.02270508 487.39648438 C195.24773744 493.07719248 189.38551 498.33951847 182.9375 503.25 C181.43896484 504.43916016 181.43896484 504.43916016 179.91015625 505.65234375 C153.56978001 526.4807449 123.87625555 541.98058665 91.9375 552.25 C91.23915039 552.48025879 90.54080078 552.71051758 89.82128906 552.94775391 C14.89754963 577.48428847 -71.65694461 567.37913833 -141.46875 532.671875 C-168.1597185 519.04803766 -191.67181358 500.7186487 -212.875 479.6875 C-213.74688965 478.82503662 -214.6187793 477.96257324 -215.51708984 477.07397461 C-266.70259385 425.63025324 -291.36524015 353.41665476 -291.24560547 281.7421875 C-290.49776074 215.64695785 -269.52194241 151.64360205 -226.0625 101.25 C-225.43988281 100.51652344 -224.81726562 99.78304687 -224.17578125 99.02734375 C-212.95700113 86.17754255 -200.74687101 73.47372805 -187.0625 63.25 C-186.53333984 62.84442871 -186.00417969 62.43885742 -185.45898438 62.02099609 C-131.57582427 20.72379496 -67.67545543 0.04007841 0 0 Z " fill="#FFFFFF" transform="translate(2422.0625,378.75)"/>
<path d="M0 0 C49.17 0 98.34 0 149 0 C149 178.86 149 357.72 149 542 C99.83 542 50.66 542 0 542 C0 363.14 0 184.28 0 0 Z " fill="#FFFFFF" transform="translate(3344,391)"/>
<path d="M0 0 C7.25606619 3.95785429 14.49349184 7.93260625 21.6875 12 C22.67661377 12.55905029 23.66572754 13.11810059 24.68481445 13.6940918 C32.7180333 18.2474948 40.69742201 22.88924316 48.66479492 27.55664062 C56.4135594 32.09031311 64.19968731 36.55593501 72 41 C81.72134099 46.53968899 91.40895092 52.13375063 101.06689453 57.78344727 C111.59084625 63.93766742 122.15380137 70.02369996 132.71777344 76.10888672 C138.14659942 79.23680148 143.57319281 82.36858448 149 85.5 C151.16665583 86.75001879 153.3333225 88.00001878 155.5 89.25 C298.5 171.75 298.5 171.75 301.75585938 173.62841797 C303.90295136 174.86710002 306.05008614 176.1057079 308.19726562 177.34423828 C313.29588809 180.2853335 318.39405296 183.22721413 323.49072266 186.17169189 C325.91047665 187.56958601 328.33047263 188.96706089 330.75048828 190.36450195 C332.46801052 191.35652324 334.18518052 192.34915429 335.90234375 193.34179688 C336.93488281 193.93798828 337.96742188 194.53417969 339.03125 195.1484375 C339.94455078 195.67614746 340.85785156 196.20385742 341.79882812 196.74755859 C343.17988691 197.53336511 344.57878495 198.28939248 346 199 C344.63138147 203.09997003 342.83440812 205.5604301 339.80859375 208.625 C338.95475098 209.49020264 338.1009082 210.35540527 337.22119141 211.24682617 C336.30257324 212.15537354 335.38395508 213.0639209 334.4375 214 C333.96769714 214.46709381 333.49789429 214.93418762 333.01385498 215.41543579 C324.58493777 223.77084188 315.73154105 231.20151823 306 238 C305.06994141 238.66515625 305.06994141 238.66515625 304.12109375 239.34375 C277.76280416 258.14711583 244.97091321 271.73807674 213 277 C212.02369629 277.16097168 211.04739258 277.32194336 210.04150391 277.48779297 C206.57161451 278.04925552 203.09922981 278.59107075 199.625 279.125 C198.52583252 279.29604248 197.42666504 279.46708496 196.29418945 279.64331055 C181.7488049 281.78942108 167.24791284 282.14873137 152.578125 282.11352539 C150.8740845 282.11321814 149.17004387 282.11335411 147.46600342 282.11389065 C142.9544159 282.1141139 138.44285558 282.10837144 133.93127441 282.10128021 C129.67814052 282.09553175 125.42501283 282.09531421 121.171875 282.09460449 C108.78124648 282.0893834 96.39062288 282.07542215 84 282.0625 C56.28 282.041875 28.56 282.02125 0 282 C0 188.94 0 95.88 0 0 Z " fill="#FFF985" transform="translate(893,515)"/>
<path d="M0 0 C1.57974609 0.72123047 1.57974609 0.72123047 3.19140625 1.45703125 C24.47306454 11.98261676 39.06091508 30.54410548 47.30859375 52.48046875 C48.33736796 55.63462265 49.2120902 58.77786361 50 62 C50.33644531 63.30130859 50.33644531 63.30130859 50.6796875 64.62890625 C55.88190502 89.10783388 51.54135373 116.93567197 38 138 C22.51970002 160.30844807 2.59213162 173.73363847 -24.26171875 178.58984375 C-49.77626702 181.3892456 -75.35272412 177.28233429 -96.0625 161.25 C-114.96347083 145.39468323 -128.24691571 124.95172915 -131 100 C-133.05417315 67.96343807 -126.02276892 42.52022868 -105.2578125 17.9375 C-79.63261294 -9.60002789 -33.35933465 -15.67072992 0 0 Z " fill="#FFFFFF" transform="translate(2442,2177)"/>
<path d="M0 0 C0.91136719 0.28875 1.82273437 0.5775 2.76171875 0.875 C20.88790899 7.24904492 36.34275374 23.12040839 45 40 C48.65093667 47.64239526 51.74733966 55.58928055 53 64 C53.10957031 64.67675781 53.21914062 65.35351562 53.33203125 66.05078125 C56.35951728 88.13124601 52.31159173 112.01225372 39.30859375 130.390625 C37.59435274 132.64559975 35.8159718 134.82645853 34 137 C33.47921875 137.66644531 32.9584375 138.33289063 32.421875 139.01953125 C20.58580666 153.5847901 2.32325413 162.15314039 -16.13623047 164.24169922 C-41.85739095 166.74001385 -64.08236088 161.66859899 -84.734375 145.9140625 C-101.35000917 132.03329979 -110.58864462 111.24289262 -113 90 C-114.39486187 66.72855208 -109.93869251 43.3529853 -94.09326172 25.34887695 C-91.79135059 22.83308558 -89.40817862 20.41487731 -87 18 C-86.20722656 17.18402344 -85.41445312 16.36804688 -84.59765625 15.52734375 C-63.01454042 -5.40935597 -27.69266371 -9.64387805 0 0 Z " fill="#FFFFFF" transform="translate(3448,140)"/>
</svg>
